<svg width="149" height="40" viewBox="0 0 149 40" fill="none" xmlns="http://www.w3.org/2000/svg">
<path fill-rule="evenodd" clip-rule="evenodd" d="M26.2149 6.42615C26.2751 6.42615 26.322 6.47328 26.322 6.53376C26.322 7.60891 25.25 8.64836 23.8205 8.64836C22.2481 8.64836 21.033 7.35798 21.033 5.78096C21.033 4.20394 22.3909 2.98547 23.8205 2.98547C24.8927 2.98547 25.1786 3.34377 25.6788 3.34377C26.0361 3.34377 26.3937 3.12879 26.3937 2.62716C26.3937 1.69533 24.6068 1.40845 23.8205 1.40845C21.1044 1.40845 19.4606 3.70232 19.4606 5.78096C19.4606 8.36147 21.5334 10.1535 23.8205 10.1535C26.2506 10.1535 27.8947 8.57646 27.8947 5.78096C27.8947 5.351 27.5371 4.99245 27.0369 4.99245H24.1778C23.749 4.99245 23.4631 5.351 23.4631 5.7093C23.4631 6.06785 23.749 6.42615 24.1778 6.42615H26.2149ZM16.6019 6.13938C16.6019 7.50117 15.6727 8.50466 14.3148 8.50466C12.9567 8.50466 12.0275 7.50117 12.0275 6.13938V2.34015C12.0275 1.83852 11.6702 1.47998 11.17 1.47998C10.741 1.47998 10.3837 1.83852 10.3837 2.34015V6.13938C10.3837 8.57632 12.1706 10.0817 14.3148 10.0817C16.4591 10.0817 18.246 8.57632 18.246 6.13938V2.34015C18.246 1.83852 17.8886 1.47998 17.3882 1.47998C16.9595 1.47998 16.6019 1.83852 16.6019 2.34015V6.13938ZM7.00357 9.54877C7.36091 9.90707 7.59556 10.0101 7.88148 10.0101C8.23881 10.0101 8.66756 9.72343 8.66756 9.1499V2.34019C8.66756 1.83857 8.31023 1.48002 7.81006 1.48002C7.38107 1.48002 7.02374 1.83857 7.02374 2.34019V6.96364C7.02374 7.06907 6.89645 7.10259 6.84058 7.03992L2.44936 1.91023C2.16344 1.62359 1.94895 1.55168 1.66303 1.55168C1.3057 1.55168 0.876953 1.83857 0.876953 2.41185V9.22156C0.876953 9.72343 1.23428 10.0817 1.66303 10.0817C2.16344 10.0817 2.52078 9.72343 2.52078 9.22156V4.67099C2.52078 4.57236 2.63932 4.52208 2.71292 4.60273L7.00357 9.54877ZM35.1844 6.13938C35.1844 7.42951 34.2553 8.50466 32.8973 8.50466C31.6109 8.50466 30.61 7.42951 30.61 6.13938V2.34015C30.61 1.83852 30.2527 1.47998 29.7525 1.47998C29.3235 1.47998 28.9662 1.83852 28.9662 2.34015V6.13938C28.9662 8.57632 30.7531 10.0817 32.8973 10.0817C35.0416 10.0817 36.8285 8.57632 36.8285 6.13938V2.34015C36.8285 1.83852 36.4711 1.47998 35.9707 1.47998C35.542 1.47998 35.1844 1.83852 35.1844 2.34015V6.13938Z" fill="#222222"/>
<path fill-rule="evenodd" clip-rule="evenodd" d="M95.4708 8.05599C95.5104 8.45267 95.6612 8.73057 95.9231 8.88919C96.1849 9.04782 96.4983 9.12725 96.8634 9.12725C96.9905 9.12725 97.1352 9.11729 97.298 9.09737C97.4605 9.0777 97.6133 9.04005 97.7561 8.98442C97.899 8.92879 98.0161 8.84741 98.1074 8.74029C98.1985 8.63316 98.2403 8.49251 98.2323 8.31785C98.2242 8.1432 98.1608 8.00036 98.0418 7.88935C97.9228 7.77833 97.77 7.68894 97.5837 7.62141C97.3971 7.55412 97.1848 7.49655 96.9467 7.44894C96.7087 7.40133 96.4667 7.34983 96.2206 7.2942C95.9668 7.23857 95.7227 7.17128 95.4887 7.09185C95.2546 7.01241 95.0442 6.90529 94.8579 6.77047C94.6713 6.63565 94.5224 6.46293 94.4114 6.25257C94.3004 6.04244 94.2448 5.78252 94.2448 5.47305C94.2448 5.13976 94.3261 4.86017 94.4886 4.63377C94.6514 4.40761 94.8579 4.22518 95.1076 4.08623C95.3578 3.94752 95.6355 3.85036 95.9411 3.79473C96.2464 3.7391 96.5381 3.71141 96.8158 3.71141C97.1333 3.71141 97.4367 3.74517 97.7263 3.81246C98.0161 3.87999 98.2779 3.98906 98.5121 4.13992C98.746 4.29077 98.9406 4.48704 99.0953 4.72899C99.2498 4.97118 99.3472 5.26268 99.3868 5.60398H97.9704C97.907 5.27871 97.7581 5.06033 97.5241 4.94932C97.29 4.8383 97.022 4.78267 96.7206 4.78267C96.6254 4.78267 96.5124 4.79069 96.3815 4.80648C96.2505 4.82227 96.1274 4.85215 96.0122 4.89563C95.8973 4.93936 95.8002 5.00276 95.7207 5.08608C95.6413 5.1694 95.6017 5.27871 95.6017 5.41353C95.6017 5.58017 95.6593 5.71499 95.7744 5.81823C95.8893 5.92147 96.0402 6.00674 96.2267 6.07402C96.413 6.14155 96.6254 6.19913 96.8634 6.24674C97.1015 6.29435 97.3475 6.34585 97.6014 6.40148C97.8475 6.4571 98.0894 6.52439 98.3275 6.60383C98.5655 6.68326 98.7778 6.79039 98.9644 6.92521C99.1507 7.06003 99.3016 7.2308 99.4165 7.43703C99.5316 7.64327 99.5892 7.89736 99.5892 8.19882C99.5892 8.56393 99.5059 8.8734 99.3392 9.12725C99.1726 9.3811 98.9564 9.58758 98.6906 9.74621C98.4246 9.90483 98.129 10.02 97.8037 10.0914C97.4785 10.1628 97.1571 10.1985 96.8396 10.1985C96.4507 10.1985 96.0917 10.1548 95.7625 10.0676C95.4331 9.98038 95.1474 9.84726 94.9055 9.66872C94.6633 9.49017 94.4729 9.26815 94.3339 9.00215C94.1952 8.7364 94.1218 8.42109 94.1138 8.05599H95.4708ZM90.2581 3.87805H91.5317V5.06835H91.5555C91.5951 4.9017 91.6726 4.73895 91.7878 4.58032C91.9027 4.4217 92.0416 4.27668 92.2041 4.14575C92.3669 4.01481 92.5474 3.90987 92.7458 3.83044C92.9443 3.751 93.1466 3.71141 93.3529 3.71141C93.5115 3.71141 93.6206 3.7153 93.6801 3.72331C93.7399 3.73133 93.8013 3.7391 93.8647 3.74712V5.05644C93.7695 5.04065 93.6723 5.02656 93.5732 5.01466C93.4739 5.00276 93.3767 4.99693 93.2815 4.99693C93.0514 4.99693 92.8352 5.0426 92.6329 5.13369C92.4303 5.22503 92.2539 5.35985 92.1031 5.53839C91.9522 5.71694 91.8332 5.93726 91.746 6.19913C91.6588 6.46099 91.6151 6.76245 91.6151 7.10375V10.0319H90.2581V3.87805ZM84.8485 7.3061C84.8485 7.54416 84.882 7.7742 84.9496 7.99647C85.0171 8.21874 85.1181 8.41308 85.2532 8.57972C85.388 8.74636 85.5586 8.87923 85.7648 8.97859C85.9713 9.0777 86.2171 9.12725 86.5028 9.12725C86.8997 9.12725 87.2191 9.04199 87.4611 8.87122C87.703 8.70069 87.8838 8.4449 88.0028 8.1036H89.2881C89.2166 8.43688 89.0937 8.73446 88.9193 8.99632C88.7447 9.25819 88.5343 9.47827 88.2882 9.65681C88.0424 9.8356 87.7667 9.97042 87.4611 10.0618C87.1555 10.1529 86.8363 10.1985 86.5028 10.1985C86.0189 10.1985 85.5904 10.1191 85.2173 9.96046C84.8444 9.80184 84.5291 9.57957 84.2711 9.2939C84.0131 9.00822 83.8188 8.66692 83.6878 8.27024C83.5569 7.87356 83.4916 7.43703 83.4916 6.96092C83.4916 6.52439 83.5608 6.10973 83.6997 5.71694C83.8387 5.32414 84.0369 4.97895 84.2949 4.68138C84.5529 4.3838 84.8643 4.14793 85.2294 3.97327C85.5943 3.79862 86.007 3.71141 86.4673 3.71141C86.9512 3.71141 87.3858 3.81246 87.7706 4.01481C88.1553 4.21716 88.4748 4.4851 88.7289 4.81838C88.9827 5.15167 89.1671 5.5345 89.2822 5.9669C89.3974 6.39953 89.427 6.84577 89.3716 7.3061H84.8485ZM88.0142 6.41344C87.9982 6.19919 87.9525 5.99295 87.8772 5.79449C87.8019 5.59602 87.6987 5.42355 87.5677 5.27659C87.4368 5.12987 87.2782 5.01084 87.0916 4.91974C86.9051 4.8284 86.6969 4.78274 86.4668 4.78274C86.2288 4.78274 86.0123 4.82428 85.818 4.9076C85.6237 4.99092 85.457 5.10606 85.3181 5.25278C85.1791 5.39975 85.0681 5.57222 84.9848 5.77068C84.9015 5.96915 84.8558 6.1834 84.848 6.41344H88.0142ZM81.438 6.96098C81.438 6.68332 81.4023 6.41344 81.3309 6.15158C81.2595 5.88971 81.1523 5.65748 81.0095 5.45513C80.8667 5.25278 80.6881 5.09027 80.4739 4.96735C80.2596 4.84419 80.0135 4.78274 79.7359 4.78274C79.1646 4.78274 78.7341 4.9812 78.4445 5.37788C78.1547 5.77457 78.01 6.30243 78.01 6.96098C78.01 7.27045 78.0476 7.55807 78.1229 7.82382C78.1985 8.08981 78.3114 8.31791 78.4623 8.50836C78.6131 8.69881 78.7936 8.84966 79.0037 8.96067C79.2141 9.07169 79.4582 9.12731 79.7359 9.12731C80.0454 9.12731 80.3072 9.06391 80.5215 8.93687C80.7357 8.80982 80.9123 8.64512 81.0513 8.44277C81.19 8.24042 81.2894 8.01038 81.3489 7.7524C81.4084 7.49467 81.438 7.23086 81.438 6.96098ZM76.7002 3.87805H77.9857V4.71126H78.0095C78.1999 4.35417 78.4657 4.09813 78.807 3.94339C79.1483 3.78866 79.5173 3.71141 79.914 3.71141C80.3981 3.71141 80.8205 3.79667 81.1818 3.9672C81.5427 4.13797 81.8423 4.3719 82.0803 4.66948C82.3184 4.96729 82.4969 5.31442 82.6159 5.7111C82.735 6.10779 82.7945 6.53241 82.7945 6.98472C82.7945 7.39744 82.741 7.79801 82.6337 8.18692C82.5265 8.57583 82.364 8.91883 82.1459 9.2164C81.9275 9.51422 81.6518 9.75204 81.3185 9.93058C80.9852 10.1091 80.5924 10.1985 80.1401 10.1985C79.9417 10.1985 79.7434 10.1805 79.545 10.1448C79.3465 10.1091 79.1561 10.0518 78.9736 9.97236C78.7912 9.89293 78.6226 9.79187 78.4679 9.66872C78.3129 9.5458 78.1842 9.40102 78.0809 9.23438H78.0571V12.3053H76.7002V3.87805ZM72.5768 9.12731C72.8783 9.12731 73.1402 9.06391 73.3624 8.93687C73.5844 8.80982 73.7669 8.64318 73.91 8.43694C74.0526 8.23071 74.1577 7.99848 74.2253 7.7405C74.2928 7.48276 74.3266 7.21896 74.3266 6.94907C74.3266 6.68721 74.2928 6.42534 74.2253 6.16348C74.1577 5.90161 74.0526 5.66938 73.91 5.46703C73.7669 5.26468 73.5844 5.10023 73.3624 4.97318C73.1402 4.84614 72.8783 4.78274 72.5768 4.78274C72.2751 4.78274 72.0133 4.84614 71.791 4.97318C71.569 5.10023 71.3865 5.26468 71.2435 5.46703C71.1006 5.66938 70.9957 5.90161 70.9281 6.16348C70.8606 6.42534 70.8271 6.68721 70.8271 6.94907C70.8271 7.21896 70.8606 7.48276 70.9281 7.7405C70.9957 7.99848 71.1006 8.23071 71.2435 8.43694C71.3865 8.64318 71.569 8.80982 71.791 8.93687C72.0133 9.06391 72.2751 9.12731 72.5768 9.12731ZM72.5769 10.1985C72.0847 10.1985 71.6462 10.1171 71.2615 9.95439C70.8767 9.79188 70.5512 9.56766 70.2854 9.28199C70.0197 8.99632 69.8173 8.65502 69.6784 8.25834C69.5394 7.86165 69.4702 7.42513 69.4702 6.94901C69.4702 6.48091 69.5394 6.04827 69.6784 5.65159C69.8173 5.25491 70.0197 4.91361 70.2854 4.62794C70.5512 4.34227 70.8767 4.11805 71.2615 3.9553C71.6462 3.79279 72.0847 3.71141 72.5769 3.71141C73.0688 3.71141 73.5072 3.79279 73.892 3.9553C74.2768 4.11805 74.6023 4.34227 74.8681 4.62794C75.1338 4.91361 75.3362 5.25491 75.4751 5.65159C75.6141 6.04827 75.6835 6.48091 75.6835 6.94901C75.6835 7.42513 75.6141 7.86165 75.4751 8.25834C75.3362 8.65502 75.1338 8.99632 74.8681 9.28199C74.6023 9.56766 74.2768 9.79188 73.892 9.95439C73.5072 10.1171 73.0688 10.1985 72.5769 10.1985ZM67.0712 10.0319H68.4281V1.5332H67.0712V10.0319ZM61.6252 7.3061C61.6252 7.54416 61.6587 7.7742 61.7262 7.99647C61.7937 8.21874 61.8948 8.41308 62.0299 8.57972C62.1647 8.74636 62.3352 8.87923 62.5414 8.97859C62.7479 9.0777 62.9938 9.12725 63.2794 9.12725C63.6764 9.12725 63.9958 9.04199 64.2377 8.87122C64.4797 8.70069 64.6604 8.4449 64.7792 8.1036H66.0647C65.9933 8.43688 65.8704 8.73446 65.696 8.99632C65.5213 9.25819 65.3109 9.47827 65.0649 9.65681C64.819 9.8356 64.5433 9.97042 64.2377 10.0618C63.9321 10.1529 63.613 10.1985 63.2794 10.1985C62.7955 10.1985 62.367 10.1191 61.9942 9.96046C61.621 9.80184 61.3057 9.57957 61.0477 9.2939C60.7898 9.00822 60.5954 8.66692 60.4645 8.27024C60.3336 7.87356 60.2682 7.43703 60.2682 6.96092C60.2682 6.52439 60.3375 6.10973 60.4764 5.71694C60.6154 5.32414 60.8136 4.97895 61.0716 4.68138C61.3295 4.3838 61.641 4.14793 62.0058 3.97327C62.3709 3.79862 62.7836 3.71141 63.2437 3.71141C63.7279 3.71141 64.1624 3.81246 64.5472 4.01481C64.932 4.21716 65.2514 4.4851 65.5055 4.81838C65.7594 5.15167 65.9437 5.5345 66.0589 5.9669C66.174 6.39953 66.2037 6.84577 66.1483 7.3061H61.6252ZM64.7922 6.41344C64.7761 6.19919 64.7305 5.99295 64.6552 5.79449C64.5799 5.59602 64.4766 5.42355 64.3457 5.27659C64.2148 5.12987 64.0561 5.01084 63.8696 4.91974C63.683 4.8284 63.4748 4.78274 63.2445 4.78274C63.0065 4.78274 62.7903 4.82428 62.596 4.9076C62.4016 4.99092 62.235 5.10606 62.096 5.25278C61.9571 5.39975 61.8461 5.57222 61.7628 5.77068C61.6794 5.96915 61.6338 6.1834 61.626 6.41344H64.7922ZM53.93 3.87813H55.406L56.9652 8.6036H56.9891L58.4888 3.87813H59.8934L57.6913 10.032H56.1677L53.93 3.87813ZM49.1273 7.3061C49.1273 7.54416 49.1608 7.7742 49.2284 7.99647C49.2959 8.21874 49.3969 8.41308 49.532 8.57972C49.6668 8.74636 49.8374 8.87923 50.0438 8.97859C50.2501 9.0777 50.4961 9.12725 50.7818 9.12725C51.1785 9.12725 51.4979 9.04199 51.7399 8.87122C51.9818 8.70069 52.1626 8.4449 52.2816 8.1036H53.5669C53.4957 8.43688 53.3725 8.73446 53.1981 8.99632C53.0235 9.25819 52.8131 9.47827 52.5673 9.65681C52.3212 9.8356 52.0455 9.97042 51.7399 10.0618C51.4343 10.1529 51.1151 10.1985 50.7818 10.1985C50.2977 10.1985 49.8692 10.1191 49.4963 9.96046C49.1232 9.80184 48.8079 9.57957 48.5499 9.2939C48.2919 9.00822 48.0976 8.66692 47.9666 8.27024C47.8357 7.87356 47.7704 7.43703 47.7704 6.96092C47.7704 6.52439 47.8396 6.10973 47.9785 5.71694C48.1175 5.32414 48.3157 4.97895 48.5737 4.68138C48.8317 4.3838 49.1431 4.14793 49.508 3.97327C49.8731 3.79862 50.2858 3.71141 50.7461 3.71141C51.23 3.71141 51.6646 3.81246 52.0494 4.01481C52.4341 4.21716 52.7536 4.4851 53.0077 4.81838C53.2615 5.15167 53.4459 5.5345 53.561 5.9669C53.6762 6.39953 53.7058 6.84577 53.6504 7.3061H49.1273ZM52.2939 6.41344C52.2779 6.19919 52.2322 5.99295 52.1569 5.79449C52.0816 5.59602 51.9783 5.42355 51.8474 5.27659C51.7165 5.12987 51.5578 5.01084 51.3713 4.91974C51.1847 4.8284 50.9765 4.78274 50.7465 4.78274C50.5082 4.78274 50.292 4.82428 50.0977 4.9076C49.9033 4.99092 49.7367 5.10606 49.5977 5.25278C49.4588 5.39975 49.3478 5.57222 49.2645 5.77068C49.1811 5.96915 49.1355 6.1834 49.1277 6.41344H52.2939ZM42.0035 7.02049C42.0035 7.28236 42.0373 7.54034 42.1048 7.79418C42.1721 8.04803 42.2753 8.27419 42.4143 8.47265C42.553 8.67112 42.7296 8.82974 42.9438 8.94877C43.1581 9.0678 43.4119 9.12731 43.7056 9.12731C44.0071 9.12731 44.267 9.06391 44.4854 8.93687C44.7035 8.80982 44.8821 8.64318 45.021 8.43694C45.1597 8.23071 45.263 7.99848 45.3305 7.7405C45.3978 7.48276 45.4316 7.21896 45.4316 6.94907C45.4316 6.26672 45.2788 5.73497 44.9734 5.35408C44.6678 4.97318 44.2532 4.78274 43.7294 4.78274C43.4119 4.78274 43.1442 4.84808 42.9259 4.97901C42.7077 5.10995 42.5292 5.28072 42.3902 5.49084C42.2515 5.70121 42.1524 5.93927 42.0929 6.20502C42.0331 6.47101 42.0035 6.74284 42.0035 7.02049ZM46.741 10.032H45.4555V9.19876H45.4317C45.2493 9.55585 44.9833 9.81164 44.6342 9.96638C44.2851 10.1211 43.9162 10.1986 43.5272 10.1986C43.0431 10.1986 42.6207 10.1133 42.2597 9.94258C41.8985 9.77205 41.599 9.54006 41.3609 9.24638C41.1228 8.95269 40.9443 8.60556 40.8253 8.20475C40.7062 7.80417 40.6467 7.37372 40.6467 6.9134C40.6467 6.35784 40.722 5.87784 40.8729 5.47314C41.0237 5.06844 41.2239 4.73515 41.4741 4.47329C41.7241 4.21142 42.0097 4.01903 42.3311 3.89587C42.6525 3.77296 42.9797 3.7115 43.313 3.7115C43.5034 3.7115 43.6978 3.72923 43.8962 3.76494C44.0947 3.80065 44.2851 3.85822 44.4676 3.93766C44.65 4.01709 44.8186 4.11814 44.9736 4.24106C45.1283 4.36422 45.2571 4.509 45.3603 4.67564H45.3841V1.53326H46.741V10.032Z" fill="#009DFF"/>
<path d="M11.0322 33.6923H8.70506V32.1538H8.66197C8.33158 32.8132 7.85036 33.2894 7.21831 33.5824C6.58626 33.8608 5.91829 34 5.21442 34C4.33817 34 3.56965 33.8462 2.90887 33.5385C2.26245 33.2161 1.72377 32.7839 1.29283 32.2418C0.861887 31.6996 0.53868 31.0623 0.323208 30.3297C0.107736 29.5824 0 28.7839 0 27.9341C0 26.9084 0.136465 26.022 0.409396 25.2747C0.682327 24.5275 1.04145 23.9121 1.48676 23.4286C1.94643 22.9451 2.46356 22.5934 3.03815 22.3736C3.62711 22.1392 4.22325 22.022 4.82657 22.022C5.17132 22.022 5.52326 22.0586 5.88238 22.1319C6.2415 22.1905 6.58626 22.293 6.91665 22.4396C7.24704 22.5861 7.5487 22.7766 7.82163 23.011C8.10892 23.2308 8.34594 23.4945 8.53268 23.8022H8.57578V18H11.0322V33.6923ZM2.45638 28.1319C2.45638 28.6154 2.51384 29.0916 2.62876 29.5604C2.75804 30.0293 2.94478 30.4469 3.18898 30.8132C3.44755 31.1795 3.77076 31.4725 4.15861 31.6923C4.54646 31.9121 5.00613 32.022 5.53763 32.022C6.08349 32.022 6.55034 31.9048 6.93819 31.6703C7.34041 31.4359 7.66361 31.1282 7.90782 30.7473C8.16638 30.3663 8.35312 29.9414 8.46804 29.4725C8.59733 28.989 8.66197 28.4982 8.66197 28C8.66197 26.7399 8.38185 25.7582 7.82163 25.0549C7.27576 24.3516 6.5288 24 5.58072 24C5.00613 24 4.51773 24.1245 4.11551 24.3736C3.72766 24.6081 3.40445 24.9231 3.14589 25.3187C2.90169 25.6996 2.72213 26.1392 2.60721 26.6374C2.50666 27.1209 2.45638 27.619 2.45638 28.1319Z" fill="#222222"/>
<path d="M18.8178 34C17.9271 34 17.1299 33.8535 16.426 33.5604C15.7365 33.2527 15.1476 32.8352 14.6592 32.3077C14.1851 31.7802 13.8188 31.1502 13.5602 30.4176C13.316 29.685 13.1939 28.8791 13.1939 28C13.1939 27.1355 13.316 26.337 13.5602 25.6044C13.8188 24.8718 14.1851 24.2418 14.6592 23.7143C15.1476 23.1868 15.7365 22.7766 16.426 22.4835C17.1299 22.1758 17.9271 22.022 18.8178 22.022C19.7084 22.022 20.4984 22.1758 21.1879 22.4835C21.8918 22.7766 22.4808 23.1868 22.9548 23.7143C23.4432 24.2418 23.8095 24.8718 24.0537 25.6044C24.3123 26.337 24.4416 27.1355 24.4416 28C24.4416 28.8791 24.3123 29.685 24.0537 30.4176C23.8095 31.1502 23.4432 31.7802 22.9548 32.3077C22.4808 32.8352 21.8918 33.2527 21.1879 33.5604C20.4984 33.8535 19.7084 34 18.8178 34ZM18.8178 32.022C19.3636 32.022 19.8377 31.9048 20.2399 31.6703C20.6421 31.4359 20.9725 31.1282 21.231 30.7473C21.4896 30.3663 21.6764 29.9414 21.7913 29.4725C21.9206 28.989 21.9852 28.4982 21.9852 28C21.9852 27.5165 21.9206 27.033 21.7913 26.5495C21.6764 26.0659 21.4896 25.641 21.231 25.2747C20.9725 24.8938 20.6421 24.5861 20.2399 24.3516C19.8377 24.1172 19.3636 24 18.8178 24C18.2719 24 17.7979 24.1172 17.3956 24.3516C16.9934 24.5861 16.663 24.8938 16.4045 25.2747C16.1459 25.641 15.952 26.0659 15.8227 26.5495C15.7078 27.033 15.6503 27.5165 15.6503 28C15.6503 28.4982 15.7078 28.989 15.8227 29.4725C15.952 29.9414 16.1459 30.3663 16.4045 30.7473C16.663 31.1282 16.9934 31.4359 17.3956 31.6703C17.7979 31.9048 18.2719 32.022 18.8178 32.022Z" fill="#222222"/>
<path d="M34.0036 26.1319C33.9031 25.4286 33.623 24.9011 33.1633 24.5495C32.718 24.1832 32.1506 24 31.4611 24C31.145 24 30.8075 24.0586 30.4484 24.1758C30.0892 24.2784 29.7588 24.4835 29.4572 24.7912C29.1555 25.0842 28.9041 25.5018 28.703 26.044C28.5019 26.5714 28.4014 27.2674 28.4014 28.1319C28.4014 28.6007 28.4516 29.0696 28.5522 29.5385C28.6671 30.0073 28.8395 30.4249 29.0693 30.7912C29.3135 31.1575 29.6224 31.4579 29.9959 31.6923C30.3693 31.9121 30.8218 32.022 31.3533 32.022C32.0716 32.022 32.6605 31.7949 33.1202 31.3407C33.5942 30.8864 33.8887 30.2491 34.0036 29.4286H36.46C36.2302 30.9084 35.6771 32.044 34.8009 32.8352C33.939 33.6117 32.7898 34 31.3533 34C30.4771 34 29.7014 33.8535 29.0262 33.5604C28.3655 33.2527 27.8052 32.8425 27.3456 32.3297C26.8859 31.8022 26.5339 31.1795 26.2897 30.4615C26.0599 29.7436 25.945 28.967 25.945 28.1319C25.945 27.2821 26.0599 26.4835 26.2897 25.7363C26.5196 24.989 26.8643 24.3443 27.324 23.8022C27.7837 23.2454 28.3511 22.8132 29.0262 22.5055C29.7157 22.1832 30.5202 22.022 31.4395 22.022C32.0859 22.022 32.6964 22.1099 33.271 22.2857C33.86 22.4469 34.3771 22.696 34.8224 23.033C35.2821 23.37 35.6556 23.7949 35.9429 24.3077C36.2302 24.8205 36.4026 25.4286 36.46 26.1319H34.0036Z" fill="#222222"/>
<path d="M48.2391 33.6923H45.8258V32.1099H45.7827C45.481 32.6813 45.0286 33.1429 44.4252 33.4945C43.8363 33.8315 43.233 34 42.6153 34C41.1501 34 40.0871 33.6337 39.4263 32.9011C38.7799 32.1538 38.4567 31.033 38.4567 29.5385V22.3297H40.913V29.2967C40.913 30.293 41.0998 30.9963 41.4733 31.4066C41.8468 31.8169 42.3711 32.022 43.0462 32.022C43.5633 32.022 43.9943 31.9414 44.339 31.7802C44.6838 31.619 44.9639 31.4066 45.1794 31.1429C45.3949 30.8645 45.5457 30.5348 45.6319 30.1538C45.7324 29.7729 45.7827 29.3626 45.7827 28.9231V22.3297H48.2391V33.6923Z" fill="#222222"/>
<path d="M50.8295 22.3297H53.1566V23.9121H53.2212C53.4079 23.6337 53.609 23.3773 53.8245 23.1429C54.04 22.9084 54.277 22.7106 54.5356 22.5495C54.8085 22.3883 55.1173 22.2637 55.4621 22.1758C55.8069 22.0733 56.2019 22.022 56.6472 22.022C57.3223 22.022 57.9472 22.1758 58.5218 22.4835C59.1108 22.7912 59.5273 23.2674 59.7715 23.9121C60.1881 23.326 60.6693 22.8645 61.2152 22.5275C61.7611 22.1905 62.4434 22.022 63.2622 22.022C64.4401 22.022 65.3523 22.315 65.9987 22.9011C66.6595 23.4872 66.9898 24.4689 66.9898 25.8462V33.6923H64.5335V27.0549C64.5335 26.6007 64.5191 26.1905 64.4904 25.8242C64.4616 25.4432 64.3755 25.1209 64.2318 24.8571C64.1025 24.5788 63.9014 24.3663 63.6285 24.2198C63.3556 24.0733 62.9821 24 62.508 24C61.6749 24 61.0716 24.2637 60.6981 24.7912C60.3246 25.3187 60.1378 26.0659 60.1378 27.033V33.6923H57.6815V26.3956C57.6815 25.6044 57.5378 25.011 57.2505 24.6154C56.9776 24.2051 56.4676 24 55.7207 24C55.4046 24 55.0958 24.0659 54.7941 24.1978C54.5068 24.3297 54.2483 24.5201 54.0184 24.7692C53.803 25.0183 53.6234 25.326 53.4798 25.6923C53.3505 26.0586 53.2858 26.4762 53.2858 26.9451V33.6923H50.8295V22.3297Z" fill="#222222"/>
<path d="M77.2273 27.011C77.1985 26.6154 77.1124 26.2344 76.9687 25.8681C76.8394 25.5018 76.6527 25.1868 76.4085 24.9231C76.1786 24.6447 75.8914 24.4249 75.5466 24.2637C75.2162 24.0879 74.8427 24 74.4261 24C73.9952 24 73.6002 24.0806 73.2411 24.2418C72.8963 24.3883 72.5946 24.6007 72.3361 24.8791C72.0919 25.1429 71.8908 25.4579 71.7327 25.8242C71.5891 26.1905 71.5101 26.5861 71.4957 27.011H77.2273ZM71.4957 28.6593C71.4957 29.0989 71.5532 29.5238 71.6681 29.9341C71.7974 30.3443 71.9841 30.7033 72.2283 31.011C72.4725 31.3187 72.7814 31.5678 73.1549 31.7582C73.5284 31.9341 73.9737 32.022 74.4908 32.022C75.209 32.022 75.7836 31.8681 76.2146 31.5604C76.6599 31.2381 76.9903 30.7619 77.2057 30.1319H79.5328C79.4035 30.7473 79.1809 31.2967 78.8649 31.7802C78.5488 32.2637 78.1682 32.674 77.7229 33.011C77.2776 33.3333 76.7748 33.5751 76.2146 33.7363C75.6687 33.9121 75.0941 34 74.4908 34C73.6145 34 72.8388 33.8535 72.1637 33.5604C71.4885 33.2674 70.914 32.8571 70.4399 32.3297C69.9802 31.8022 69.6283 31.1722 69.3841 30.4396C69.1543 29.707 69.0394 28.9011 69.0394 28.022C69.0394 27.2161 69.1615 26.4542 69.4057 25.7363C69.6642 25.0037 70.0233 24.3663 70.483 23.8242C70.9571 23.2674 71.5245 22.8278 72.1852 22.5055C72.846 22.1832 73.593 22.022 74.4261 22.022C75.3024 22.022 76.0853 22.2125 76.7748 22.5934C77.4787 22.9597 78.0604 23.4505 78.5201 24.0659C78.9798 24.6813 79.3102 25.3919 79.5113 26.1978C79.7268 26.989 79.7842 27.8095 79.6837 28.6593H71.4957Z" fill="#222222"/>
<path d="M81.551 22.3297H83.8781V24L83.9212 24.044C84.2947 23.4139 84.7831 22.9231 85.3864 22.5714C85.9897 22.2051 86.6577 22.022 87.3903 22.022C88.6113 22.022 89.5738 22.3443 90.2776 22.989C90.9815 23.6337 91.3334 24.6007 91.3334 25.8901V33.6923H88.8771V26.5495C88.8483 25.6557 88.6616 25.011 88.3168 24.6154C87.9721 24.2051 87.4334 24 86.7008 24C86.2842 24 85.9107 24.0806 85.5804 24.2418C85.25 24.3883 84.9698 24.6007 84.74 24.8791C84.5102 25.1429 84.3306 25.4579 84.2013 25.8242C84.072 26.1905 84.0074 26.5788 84.0074 26.989V33.6923H81.551V22.3297Z" fill="#222222"/>
<path d="M92.8034 22.3297H94.6564V18.9231H97.1128V22.3297H99.3322V24.1978H97.1128V30.2637C97.1128 30.5275 97.12 30.7546 97.1343 30.9451C97.1631 31.1355 97.2134 31.2967 97.2852 31.4286C97.3714 31.5604 97.4935 31.663 97.6515 31.7363C97.8095 31.7949 98.025 31.8242 98.2979 31.8242C98.4703 31.8242 98.6427 31.8242 98.815 31.8242C98.9874 31.8095 99.1598 31.7802 99.3322 31.7363V33.6703C99.0592 33.6996 98.7935 33.7289 98.5349 33.7582C98.2764 33.7875 98.0106 33.8022 97.7377 33.8022C97.0913 33.8022 96.5669 33.7436 96.1647 33.6264C95.7769 33.4945 95.468 33.3114 95.2382 33.0769C95.0227 32.8278 94.8719 32.5201 94.7857 32.1538C94.7139 31.7875 94.6708 31.37 94.6564 30.9011V24.1978H92.8034V22.3297Z" fill="#222222"/>
<path d="M110.429 31.1648C110.429 31.4725 110.465 31.6923 110.537 31.8242C110.623 31.956 110.781 32.022 111.011 32.022C111.083 32.022 111.169 32.022 111.269 32.022C111.37 32.022 111.485 32.0073 111.614 31.978V33.7143C111.528 33.7436 111.413 33.7729 111.269 33.8022C111.14 33.8462 111.004 33.8828 110.86 33.9121C110.716 33.9414 110.573 33.9634 110.429 33.978C110.285 33.9927 110.163 34 110.063 34C109.56 34 109.143 33.8974 108.813 33.6923C108.483 33.4872 108.267 33.1282 108.167 32.6154C107.678 33.0989 107.075 33.4506 106.357 33.6703C105.653 33.8901 104.971 34 104.31 34C103.807 34 103.326 33.9267 102.866 33.7802C102.406 33.6484 101.997 33.4506 101.638 33.1868C101.293 32.9084 101.013 32.5641 100.798 32.1538C100.596 31.7289 100.496 31.2381 100.496 30.6813C100.496 29.978 100.618 29.4066 100.862 28.967C101.121 28.5275 101.451 28.1832 101.853 27.9341C102.27 27.685 102.73 27.5092 103.232 27.4066C103.75 27.2894 104.267 27.2015 104.784 27.1429C105.229 27.0549 105.653 26.9963 106.055 26.967C106.457 26.9231 106.809 26.8571 107.111 26.7692C107.427 26.6813 107.671 26.5495 107.843 26.3736C108.03 26.1832 108.124 25.9048 108.124 25.5385C108.124 25.2161 108.045 24.9524 107.887 24.7473C107.743 24.5421 107.556 24.3883 107.326 24.2857C107.111 24.1685 106.867 24.0952 106.594 24.0659C106.321 24.022 106.062 24 105.818 24C105.129 24 104.561 24.1465 104.116 24.4396C103.671 24.7326 103.419 25.1868 103.362 25.8022H100.905C100.948 25.0696 101.121 24.4615 101.422 23.978C101.724 23.4945 102.105 23.1062 102.564 22.8132C103.038 22.5201 103.57 22.315 104.159 22.1978C104.748 22.0806 105.351 22.022 105.969 22.022C106.515 22.022 107.053 22.0806 107.585 22.1978C108.116 22.315 108.59 22.5055 109.007 22.7692C109.438 23.033 109.783 23.3773 110.041 23.8022C110.3 24.2125 110.429 24.7179 110.429 25.3187V31.1648ZM107.973 28C107.599 28.2491 107.14 28.4029 106.594 28.4615C106.048 28.5055 105.502 28.5788 104.956 28.6813C104.698 28.7253 104.446 28.7912 104.202 28.8791C103.958 28.9524 103.742 29.0623 103.556 29.2088C103.369 29.3407 103.218 29.5238 103.103 29.7582C103.003 29.978 102.952 30.2491 102.952 30.5714C102.952 30.8498 103.031 31.0842 103.189 31.2747C103.347 31.4652 103.534 31.619 103.75 31.7363C103.979 31.8388 104.224 31.9121 104.482 31.956C104.755 32 104.999 32.022 105.215 32.022C105.488 32.022 105.782 31.9853 106.098 31.9121C106.414 31.8388 106.709 31.7143 106.982 31.5385C107.269 31.3626 107.506 31.1429 107.693 30.8791C107.879 30.6007 107.973 30.2637 107.973 29.8681V28Z" fill="#222222"/>
<path d="M111.952 22.3297H113.805V18.9231H116.261V22.3297H118.481V24.1978H116.261V30.2637C116.261 30.5275 116.268 30.7546 116.283 30.9451C116.311 31.1355 116.362 31.2967 116.434 31.4286C116.52 31.5604 116.642 31.663 116.8 31.7363C116.958 31.7949 117.173 31.8242 117.446 31.8242C117.619 31.8242 117.791 31.8242 117.963 31.8242C118.136 31.8095 118.308 31.7802 118.481 31.7363V33.6703C118.208 33.6996 117.942 33.7289 117.683 33.7582C117.425 33.7875 117.159 33.8022 116.886 33.8022C116.24 33.8022 115.715 33.7436 115.313 33.6264C114.925 33.4945 114.616 33.3114 114.387 33.0769C114.171 32.8278 114.02 32.5201 113.934 32.1538C113.862 31.7875 113.819 31.37 113.805 30.9011V24.1978H111.952V22.3297Z" fill="#222222"/>
<path d="M120.312 18H122.769V20.3736H120.312V18ZM120.312 22.3297H122.769V33.6923H120.312V22.3297Z" fill="#222222"/>
<path d="M130.552 34C129.661 34 128.864 33.8535 128.16 33.5604C127.47 33.2527 126.881 32.8352 126.393 32.3077C125.919 31.7802 125.553 31.1502 125.294 30.4176C125.05 29.685 124.928 28.8791 124.928 28C124.928 27.1355 125.05 26.337 125.294 25.6044C125.553 24.8718 125.919 24.2418 126.393 23.7143C126.881 23.1868 127.47 22.7766 128.16 22.4835C128.864 22.1758 129.661 22.022 130.552 22.022C131.442 22.022 132.232 22.1758 132.922 22.4835C133.626 22.7766 134.215 23.1868 134.689 23.7143C135.177 24.2418 135.543 24.8718 135.788 25.6044C136.046 26.337 136.175 27.1355 136.175 28C136.175 28.8791 136.046 29.685 135.788 30.4176C135.543 31.1502 135.177 31.7802 134.689 32.3077C134.215 32.8352 133.626 33.2527 132.922 33.5604C132.232 33.8535 131.442 34 130.552 34ZM130.552 32.022C131.098 32.022 131.572 31.9048 131.974 31.6703C132.376 31.4359 132.706 31.1282 132.965 30.7473C133.224 30.3663 133.41 29.9414 133.525 29.4725C133.654 28.989 133.719 28.4982 133.719 28C133.719 27.5165 133.654 27.033 133.525 26.5495C133.41 26.0659 133.224 25.641 132.965 25.2747C132.706 24.8938 132.376 24.5861 131.974 24.3516C131.572 24.1172 131.098 24 130.552 24C130.006 24 129.532 24.1172 129.13 24.3516C128.727 24.5861 128.397 24.8938 128.138 25.2747C127.88 25.641 127.686 26.0659 127.557 26.5495C127.442 27.033 127.384 27.5165 127.384 28C127.384 28.4982 127.442 28.989 127.557 29.4725C127.686 29.9414 127.88 30.3663 128.138 30.7473C128.397 31.1282 128.727 31.4359 129.13 31.6703C129.532 31.9048 130.006 32.022 130.552 32.022Z" fill="#222222"/>
<path d="M138.218 22.3297H140.545V24L140.588 24.044C140.961 23.4139 141.45 22.9231 142.053 22.5714C142.656 22.2051 143.324 22.022 144.057 22.022C145.278 22.022 146.24 22.3443 146.944 22.989C147.648 23.6337 148 24.6007 148 25.8901V33.6923H145.544V26.5495C145.515 25.6557 145.328 25.011 144.983 24.6154C144.639 24.2051 144.1 24 143.367 24C142.951 24 142.577 24.0806 142.247 24.2418C141.917 24.3883 141.636 24.6007 141.407 24.8791C141.177 25.1429 140.997 25.4579 140.868 25.8242C140.739 26.1905 140.674 26.5788 140.674 26.989V33.6923H138.218V22.3297Z" fill="#222222"/>
</svg>
