<svg width="50" height="48" viewBox="0 0 50 48" fill="none" xmlns="http://www.w3.org/2000/svg">
<path d="M24.5835 1.875C24.6797 1.70833 24.9203 1.70833 25.0165 1.875L48.226 42.075C48.3222 42.2417 48.2019 42.45 48.0095 42.45H1.59052C1.39807 42.45 1.27779 42.2417 1.37401 42.075L24.5835 1.875Z" stroke="#D9DCE2" stroke-width="1.5"/>
<circle cx="25" cy="35" r="1" transform="rotate(-180 25 35)" fill="#D9DCE2"/>
<path d="M24.5187 18.4996L24.9482 29.9513C24.9492 29.9785 24.9715 30 24.9987 30C25.0259 30 25.0482 29.9785 25.0492 29.9513L25.4812 18.4997C25.4914 18.2268 25.273 18 24.9999 18C24.7269 18 24.5085 18.2268 24.5187 18.4996Z" stroke="#D9DCE2"/>
</svg>
