<svg width="149" height="40" viewBox="0 0 149 40" fill="none" xmlns="http://www.w3.org/2000/svg">
<path d="M9.08104 21.2871L11.2804 20.6217V35.7962H9.20239V34.1613C8.35429 35.3121 7.06303 35.998 5.46908 35.998C2.38207 35.998 0 33.5355 0 30.3271C0 27.1188 2.38071 24.6768 5.46908 24.6768C6.98258 24.6768 8.2343 25.3026 9.08104 26.3512V21.2857V21.2871ZM9.08104 30.3271C9.08104 28.2682 7.62753 26.7357 5.67088 26.7357C3.71423 26.7357 2.26072 28.2492 2.26072 30.3271C2.26072 32.4051 3.69377 33.9186 5.67088 33.9186C7.64798 33.9186 9.08104 32.4051 9.08104 30.3271Z" fill="#222222"/>
<path d="M13.1457 30.3285C13.1457 27.1202 15.6068 24.6781 18.8357 24.6781C22.0645 24.6781 24.5065 27.1202 24.5065 30.3285C24.5065 33.5368 22.044 35.9993 18.8357 35.9993C15.6273 35.9993 13.1457 33.5573 13.1457 30.3285ZM22.2472 30.3285C22.2472 28.331 20.7937 26.737 18.837 26.737C16.8804 26.737 15.4064 28.331 15.4064 30.3285C15.4064 32.326 16.8599 33.92 18.837 33.92C20.8141 33.92 22.2472 32.3465 22.2472 30.3285Z" fill="#222222"/>
<path d="M25.7992 30.3285C25.7992 27.0793 28.443 24.6781 31.53 24.6781C33.5276 24.6781 35.3043 25.5453 36.2724 27.1202L34.598 28.391C33.8317 27.3411 32.7613 26.7766 31.6118 26.7766C29.6947 26.7766 28.1008 28.2096 28.1008 30.3285C28.1008 32.4474 29.6947 33.9009 31.6118 33.9009C32.8022 33.9009 33.9926 33.3159 34.6593 32.3669L36.2533 33.6377C35.2647 35.1921 33.5085 35.9993 31.5314 35.9993C28.4635 35.9993 25.8005 33.5777 25.8005 30.3285H25.7992Z" fill="#222222"/>
<path d="M45.4747 25.0408H47.6946V35.7962H45.6165V34.3236C44.8298 35.3926 43.5181 35.998 41.9841 35.998C39.3812 35.998 37.6454 34.3031 37.6454 31.7002V25.0408H39.8652V31.2352C39.8652 33.0105 40.7733 33.9391 42.5486 33.9391C44.3239 33.9391 45.4747 32.8292 45.4747 31.2557V25.0408Z" fill="#222222"/>
<path d="M66.5138 28.6527V35.7961H64.3145V29.0154C64.3145 27.6437 63.3464 26.7357 61.9133 26.7357C60.4803 26.7357 59.4522 27.6233 59.4522 28.9145V35.7961H57.2528V29.0154C57.2528 27.6437 56.3038 26.7357 54.8517 26.7357C53.3995 26.7357 52.3891 27.6847 52.3891 29.0154V35.7961H50.1898V24.9999H51.8246L52.5514 25.968C53.2986 25.1813 54.4085 24.6768 55.5375 24.6768C57.111 24.6768 58.2618 25.2822 58.8877 26.392C59.6744 25.3421 61.087 24.6768 62.6005 24.6768C65.0222 24.6768 66.5152 26.1902 66.5152 28.6527H66.5138Z" fill="#222222"/>
<path d="M79.1564 31.1152H70.7012C71.0039 32.8905 72.3156 34.0004 74.2123 34.0004C75.6044 34.0004 76.7948 33.5164 77.5624 32.7092L78.7937 34.1422C77.6429 35.3326 75.9889 35.9993 74.1932 35.9993C70.7421 35.9993 68.341 33.6582 68.341 30.3285C68.341 26.9988 70.7217 24.6781 73.81 24.6781C76.8984 24.6781 79.1578 26.9388 79.1578 30.3885V31.1152H79.1564ZM70.7612 29.2186H76.7743C76.4512 27.6042 75.4217 26.6757 73.8482 26.6757C72.2747 26.6757 71.1035 27.6247 70.7612 29.2186Z" fill="#222222"/>
<path d="M91.1377 28.9759V35.7961H88.9383V29.419C88.9383 27.7651 87.8489 26.7357 86.1731 26.7357C84.4973 26.7357 83.2674 27.8455 83.2674 29.419V35.7961H81.0681V24.9999H82.7029L83.4502 25.9885C84.2369 25.1404 85.4273 24.6768 86.7799 24.6768C89.4837 24.6768 91.139 26.3321 91.139 28.9745L91.1377 28.9759Z" fill="#222222"/>
<path d="M99.7729 35.5548C99.3093 35.7566 98.5621 35.9584 97.6144 35.9584C95.576 35.9584 94.2042 34.7885 94.2042 32.6696V27.1611H92.3076V25.0831H94.2042V22.6615L96.4036 21.9756V25.0831H99.2888V27.1611H96.4036V32.3478C96.4036 33.5177 97.069 33.8818 98.078 33.8818C98.663 33.8818 99.1879 33.74 99.6324 33.5995L99.7742 35.5575L99.7729 35.5548Z" fill="#222222"/>
<path d="M109.859 24.9999H111.494V35.7961H109.435V34.1613C108.587 35.3121 107.295 35.9979 105.701 35.9979C102.614 35.9979 100.232 33.5355 100.232 30.3271C100.232 27.1188 102.613 24.6768 105.701 24.6768C107.073 24.6768 108.224 25.1813 109.052 26.0484L109.859 24.9985V24.9999ZM109.313 30.3271C109.313 28.2682 107.86 26.7357 105.903 26.7357C103.947 26.7357 102.493 28.2491 102.493 30.3271C102.493 32.4051 103.926 33.9186 105.903 33.9186C107.88 33.9186 109.313 32.4051 109.313 30.3271Z" fill="#222222"/>
<path d="M120.279 35.5548C119.815 35.7566 119.068 35.9584 118.12 35.9584C116.082 35.9584 114.71 34.7885 114.71 32.6696V27.1611H112.814V25.0831H114.71V22.6615L116.91 21.9756V25.0831H119.795V27.1611H116.91V32.3478C116.91 33.5177 117.575 33.8818 118.584 33.8818C119.169 33.8818 119.694 33.74 120.138 33.5995L120.28 35.5575L120.279 35.5548Z" fill="#222222"/>
<path d="M121.263 22.1556C121.263 21.3893 121.889 20.803 122.696 20.803C123.504 20.803 124.129 21.388 124.129 22.1556C124.129 22.9233 123.504 23.5082 122.696 23.5082C121.889 23.5082 121.263 22.9233 121.263 22.1556ZM121.586 35.7962V25.3231H123.806V35.7962H121.586Z" fill="#222222"/>
<path d="M125.677 30.3285C125.677 27.1202 128.14 24.6781 131.368 24.6781C134.597 24.6781 137.039 27.1202 137.039 30.3285C137.039 33.5368 134.578 35.9993 131.368 35.9993C128.159 35.9993 125.677 33.5573 125.677 30.3285ZM134.778 30.3285C134.778 28.331 133.325 26.737 131.368 26.737C129.412 26.737 127.938 28.331 127.938 30.3285C127.938 32.326 129.391 33.92 131.368 33.92C133.345 33.92 134.778 32.3465 134.778 30.3285Z" fill="#222222"/>
<path d="M148.999 28.9759V35.7961H146.799V29.419C146.799 27.7651 145.71 26.7357 144.034 26.7357C142.358 26.7357 141.128 27.8455 141.128 29.419V35.7961H138.929V24.9999H140.564L141.311 25.9885C142.098 25.1404 143.288 24.6768 144.641 24.6768C147.345 24.6768 149 26.3321 149 28.9745L148.999 28.9759Z" fill="#222222"/>
<path fill-rule="evenodd" clip-rule="evenodd" d="M29.5939 9.74932C29.663 9.74932 29.7174 9.80369 29.7174 9.87275C29.7174 11.1041 28.489 12.2942 26.8492 12.2942C25.0463 12.2942 23.6533 10.8161 23.6533 9.01025C23.6533 7.20443 25.2094 5.80856 26.8492 5.80856C28.0776 5.80856 28.4052 6.21851 28.9797 6.21851C29.3897 6.21851 29.7996 5.97166 29.7996 5.39715C29.7982 4.33041 27.7499 4.00128 26.8492 4.00128C23.7356 4.00128 21.8519 6.62845 21.8519 9.01025C21.8519 11.9665 24.2279 14.0192 26.8492 14.0192C29.6351 14.0192 31.5188 12.2134 31.5188 9.01025C31.5188 8.51802 31.1088 8.10661 30.5358 8.10661H27.2591C26.7669 8.10661 26.4392 8.51655 26.4392 8.92796C26.4392 9.33938 26.7669 9.74932 27.2591 9.74932H29.5939ZM18.5738 9.42019C18.5738 10.9806 17.5085 12.1296 15.9525 12.1296C14.3964 12.1296 13.3311 10.9806 13.3311 9.42019V5.06949C13.3311 4.49498 12.9212 4.08356 12.3482 4.08356C11.8559 4.08356 11.4474 4.49351 11.4474 5.06949V9.42166C11.4474 12.2134 13.4957 13.9369 15.9539 13.9369C18.4122 13.9369 20.4604 12.2134 20.4604 9.42166V5.06949C20.4604 4.49498 20.0505 4.08356 19.4774 4.08356C18.9852 4.08356 18.5767 4.49351 18.5767 5.06949V9.42166L18.5738 9.42019ZM7.57276 13.3257C7.98271 13.7356 8.2516 13.8546 8.57927 13.8546C8.98922 13.8546 9.47998 13.5255 9.47998 12.8702V5.06949C9.47998 4.49498 9.07003 4.08356 8.49699 4.08356C8.00475 4.08356 7.59627 4.49351 7.59627 5.06949V10.365C7.59627 10.4855 7.45081 10.5237 7.38616 10.4517L2.35216 4.57726C2.02449 4.2496 1.77911 4.16732 1.45145 4.16732C1.0415 4.16732 0.550735 4.49645 0.550735 5.15324V12.9525C0.550735 13.527 0.960684 13.9384 1.45145 13.9384C2.02449 13.9384 2.43444 13.5285 2.43444 12.9525V7.73927C2.43444 7.62613 2.56962 7.56883 2.65485 7.6614L7.57276 13.3272V13.3257ZM39.8764 9.42019C39.8764 10.8983 38.8112 12.1296 37.2551 12.1296C35.7799 12.1296 34.6338 10.8983 34.6338 9.42019V5.06949C34.6338 4.49498 34.2239 4.08356 33.6508 4.08356C33.1586 4.08356 32.7501 4.49351 32.7501 5.06949V9.42166C32.7501 12.2134 34.7984 13.9369 37.2566 13.9369C39.7148 13.9369 41.7631 12.2134 41.7631 9.42166V5.06949C41.7631 4.49498 41.3531 4.08356 40.7801 4.08356C40.2879 4.08356 39.8794 4.49351 39.8794 5.06949V9.42166L39.8764 9.42019Z" fill="#222222"/>
<path d="M51.1552 4.40407L52.4747 4V13.1922H51.2286V12.2018C50.7203 12.8983 49.9459 13.3141 48.9908 13.3141C47.1394 13.3141 45.7112 11.8227 45.7112 9.87881C45.7112 7.93488 47.1394 6.45673 48.9908 6.45673C49.8989 6.45673 50.6483 6.83582 51.1566 7.47057V4.40407H51.1552ZM51.1552 9.88028C51.1552 8.63281 50.2839 7.70419 49.1098 7.70419C47.9358 7.70419 47.0645 8.62106 47.0645 9.88028C47.0645 11.1395 47.9241 12.0564 49.1098 12.0564C50.2956 12.0564 51.1552 11.1395 51.1552 9.88028Z" fill="#009FFF"/>
<path d="M60.1329 10.3563H55.0636C55.2458 11.4319 56.0319 12.1048 57.1692 12.1048C58.0038 12.1048 58.7179 11.811 59.1778 11.3232L59.9154 12.1915C59.2263 12.913 58.233 13.3156 57.156 13.3156C55.0871 13.3156 53.6472 11.8977 53.6472 9.88027C53.6472 7.86288 55.0754 6.45819 56.9268 6.45819C58.7781 6.45819 60.1329 7.82761 60.1329 9.91701V10.3563ZM55.0989 9.20732H58.7047C58.5107 8.22874 57.8936 7.66745 56.9503 7.66745C56.007 7.66745 55.3046 8.24196 55.0989 9.20732Z" fill="#009FFF"/>
<path d="M65.9413 6.67712H67.3562L64.4763 13.1922H63.3875L60.5076 6.67712H61.9961L63.9679 11.3217L65.9398 6.67712H65.9413Z" fill="#009FFF"/>
<path d="M74.0594 10.3563H68.9902C69.1724 11.4319 69.9585 12.1048 71.0958 12.1048C71.9304 12.1048 72.6445 11.811 73.1044 11.3232L73.842 12.1915C73.1529 12.913 72.1596 13.3156 71.084 13.3156C69.0152 13.3156 67.5752 11.8977 67.5752 9.88027C67.5752 7.86288 69.0034 6.45819 70.8548 6.45819C72.7062 6.45819 74.0609 7.82761 74.0609 9.91701V10.3563H74.0594ZM69.0254 9.20732H72.6312C72.4373 8.22874 71.8202 7.66745 70.8768 7.66745C69.9335 7.66745 69.2312 8.24196 69.0254 9.20732Z" fill="#009FFF"/>
<path d="M75.2452 13.1922V4.40407L76.5764 4V13.1922H75.2452Z" fill="#009FFF"/>
<path d="M77.7872 9.87881C77.7872 7.93488 79.2639 6.45673 81.199 6.45673C83.1341 6.45673 84.5991 7.93635 84.5991 9.87881C84.5991 11.8213 83.1224 13.3141 81.199 13.3141C79.2756 13.3141 77.7872 11.8345 77.7872 9.87881ZM83.2443 9.87881C83.2443 8.66808 82.373 7.70272 81.199 7.70272C80.025 7.70272 79.1419 8.66808 79.1419 9.87881C79.1419 11.0895 80.0132 12.0549 81.199 12.0549C82.3848 12.0549 83.2443 11.1013 83.2443 9.87881Z" fill="#009FFF"/>
<path d="M92.5732 9.87881C92.5732 11.8227 91.145 13.3141 89.2936 13.3141C88.3856 13.3141 87.6362 12.935 87.1278 12.3003V15.6856L85.8083 16.0765V6.65215H86.7884L87.2718 7.30012C87.7802 6.76235 88.4693 6.45673 89.2922 6.45673C91.1436 6.45673 92.5718 7.93635 92.5718 9.87881H92.5732ZM91.2185 9.87881C91.2185 8.61959 90.3589 7.70272 89.1732 7.70272C87.9874 7.70272 87.1278 8.63134 87.1278 9.87881C87.1278 11.1263 87.9991 12.0549 89.1732 12.0549C90.3472 12.0549 91.2185 11.138 91.2185 9.87881Z" fill="#009FFF"/>
<path d="M99.917 10.3563H94.8478C95.03 11.4319 95.8161 12.1048 96.9534 12.1048C97.788 12.1048 98.5021 11.811 98.962 11.3232L99.6996 12.1915C99.0105 12.913 98.0172 13.3156 96.9401 13.3156C94.8713 13.3156 93.4313 11.8977 93.4313 9.88027C93.4313 7.86288 94.8595 6.45819 96.7109 6.45819C98.5623 6.45819 99.917 7.82761 99.917 9.91701V10.3563ZM94.883 9.20732H98.4888C98.2949 8.22874 97.6778 7.66745 96.7344 7.66745C95.7911 7.66745 95.0888 8.24196 94.883 9.20732Z" fill="#009FFF"/>
<path d="M102.628 7.44705C103.125 6.84756 103.862 6.57867 104.685 6.57867V7.89814C103.488 7.89814 102.422 8.41094 102.422 9.82884V13.1907H101.103V6.65214H102.083L102.628 7.44705Z" fill="#009FFF"/>
<path d="M105.083 12.0916L105.966 11.1997C106.378 11.7375 107.115 12.0799 107.841 12.0799C108.676 12.0799 109.148 11.786 109.148 11.2982C109.148 10.9558 108.808 10.7354 108.167 10.54L107.067 10.2226C105.93 9.89203 105.336 9.25728 105.336 8.37714C105.336 7.26486 106.45 6.45819 107.913 6.45819C108.882 6.45819 109.85 6.82552 110.382 7.41179L109.522 8.29192C109.099 7.88785 108.517 7.68068 107.913 7.68068C107.187 7.68068 106.751 7.96132 106.751 8.35363C106.751 8.68423 107.089 8.89141 107.743 9.08683L108.857 9.40421C109.945 9.70983 110.551 10.3696 110.551 11.2629C110.551 12.4604 109.402 13.317 107.84 13.317C106.714 13.317 105.662 12.8527 105.082 12.0946L105.083 12.0916Z" fill="#009FFF"/>
</svg>
