<svg width="63" height="16" viewBox="0 0 63 16" fill="none" xmlns="http://www.w3.org/2000/svg">
<path fill-rule="evenodd" clip-rule="evenodd" d="M48.8057 7.77195C48.8797 7.77195 48.9445 7.83662 48.9445 7.91073C48.9445 9.29858 47.5566 10.6402 45.7062 10.6402C43.6707 10.6402 42.0978 8.97475 42.0978 6.93924C42.0978 4.90374 43.8557 3.33085 45.7062 3.33085C47.094 3.33085 47.4641 3.79347 48.1118 3.79347C48.5744 3.79347 49.037 3.5159 49.037 2.86824C49.037 1.66544 46.7239 1.29535 45.7062 1.29535C42.1903 1.29535 40.0623 4.25608 40.0623 6.93924C40.0623 10.2701 42.7455 12.5831 45.7062 12.5831C48.852 12.5831 50.98 10.5476 50.98 6.93924C50.98 6.38411 50.5174 5.92149 49.8697 5.92149H46.1688C45.6137 5.92149 45.2436 6.38411 45.2436 6.84672C45.2436 7.30933 45.6137 7.77195 46.1688 7.77195H48.8057ZM36.3614 7.40186C36.3614 9.15979 35.1586 10.4551 33.4006 10.4551C31.6427 10.4551 30.4399 9.15979 30.4399 7.40186V2.49815C30.4399 1.85049 29.9773 1.38787 29.3296 1.38787C28.7745 1.38787 28.3119 1.85049 28.3119 2.49815V7.40186C28.3119 10.5476 30.625 12.4906 33.4006 12.4906C36.1763 12.4906 38.4894 10.5476 38.4894 7.40186V2.49815C38.4894 1.85049 38.0268 1.38787 37.3791 1.38787C36.824 1.38787 36.3614 1.85049 36.3614 2.49815V7.40186ZM23.9356 11.8059C24.3982 12.2686 24.7035 12.3981 25.0736 12.3981C25.5362 12.3981 26.0913 12.028 26.0913 11.2878V2.49815C26.0913 1.85049 25.6287 1.38787 24.9811 1.38787C24.4259 1.38787 23.9633 1.85049 23.9633 2.49815V8.46587C23.9633 8.60466 23.7968 8.64157 23.7228 8.56765L18.0419 1.94301C17.6718 1.57292 17.3942 1.48039 17.0241 1.48039C16.5615 1.48039 16.0063 1.85049 16.0063 2.59067V11.3803C16.0063 12.028 16.469 12.4906 17.0241 12.4906C17.6718 12.4906 18.1344 12.028 18.1344 11.3803V5.50514C18.1344 5.37561 18.2917 5.31075 18.3842 5.41262L23.9356 11.8059ZM60.4173 7.40186C60.4173 9.06727 59.2145 10.4551 57.4566 10.4551C55.7912 10.4551 54.4959 9.06727 54.4959 7.40186V2.49815C54.4959 1.85049 54.0332 1.38787 53.3856 1.38787C52.8304 1.38787 52.3678 1.85049 52.3678 2.49815V7.40186C52.3678 10.5476 54.6809 12.4906 57.4566 12.4906C60.2323 12.4906 62.5453 10.5476 62.5453 7.40186V2.49815C62.5453 1.85049 62.0827 1.38787 61.4351 1.38787C60.8799 1.38787 60.4173 1.85049 60.4173 2.49815V7.40186Z" fill="#D9DCE2"/>
<mask id="mask0_4615_744" style="mask-type:alpha" maskUnits="userSpaceOnUse" x="0" y="0" width="12" height="16">
<path fill-rule="evenodd" clip-rule="evenodd" d="M11.5654 0.0925293H0V7.61348V15.1344H11.5654V0.0925293V0.0925293Z" fill="white"/>
</mask>
<g mask="url(#mask0_4615_744)">
<path fill-rule="evenodd" clip-rule="evenodd" d="M3.97848 2.22056C3.42335 2.22056 2.96073 1.75794 2.96073 1.11028C2.96073 0.555144 3.42335 0.0925293 3.97848 0.0925293H8.23454C10.085 0.0925293 11.5654 1.5729 11.5654 3.33083V7.58688C11.5654 8.23454 11.1027 8.69715 10.4551 8.69715C9.89995 8.69715 9.43733 8.23454 9.43733 7.58688V3.33083C9.43733 2.77569 8.88219 2.22056 8.23454 2.22056H3.97848ZM3.88596 11.5654H3.2383C1.48037 11.5654 0 10.1775 0 8.32706V4.07101C0 3.51588 0.462614 3.05326 1.01775 3.05326C1.66541 3.05326 2.12803 3.51588 2.12803 4.07101V8.32706C2.12803 8.97472 2.68316 9.52986 3.2383 9.52986H5.92146L3.88596 11.5654ZM8.29005 9.84444C8.7064 10.2608 8.7064 10.9362 8.29005 11.3526L4.82044 14.8222C4.40409 15.2385 3.72867 15.2385 3.31232 14.8222C2.89597 14.4058 2.89597 13.7304 3.31232 13.314L6.78193 9.84444C7.19828 9.42809 7.8737 9.42809 8.29005 9.84444Z" fill="#D9DCE2"/>
</g>
</svg>
